<?xml version="1.0" encoding="UTF-8"?>
<svg xmlns="http://www.w3.org/2000/svg" viewBox="0 0 142.27 64.74">
  <path fill="#fff" d="M519.84,145.36c.75.46,5.83.1,8.57.94,7.78,2.37,9.64,9.99,11.47,11.02,1.18.66,4.18,0,6.07.43,10.54,2.46,10.47,18.31-.21,20.32-23.99-.71-50.91,2.48-74.59.48-4.86-.41-9.76-3.12-13.96-3.12-8.18,0-16.25,4.6-27.04,3.13-15.11-2.06-8.65-26.56,6.53-18.04.05-4.96,4.92-12.11,9.3-14.22,2.12-1.02,8.35-1.53,8.64-1.85.26-.28.02-3.47.54-4.96,4.71-13.45,18.81-18.51,31.57-12.51,1.85.87,4.74,3.63,5.92,3.94,1.58.42,5.02-.65,7.52-.41,4.95.47,10.95,3.01,14.51,6.52,1.8,1.78,4.74,8.08,5.16,8.33Z" transform="translate(-416.54 -119.48)"/>
</svg>
