<?xml version="1.0" encoding="UTF-8"?>
<svg xmlns="http://www.w3.org/2000/svg" viewBox="0 0 128.24 85.56">
  <path fill="#fff" d="M459.91,21.45c.44.27,6.82.79,9.04,1.46,30.23,9.12,20.8,52.32-6.6,52.6-15.86.16-32.28-3.34-48.15-2.93-8.94.23-17.73,3.37-26.84,2.93-2.47-.12-9.75-.74-11.67-1.34-6.57-2.05-7.8-11.26-4.4-16.52,3.12-4.82,7.99-3.71,10.24-5.26.46-.32,2.08-5.06,3.68-6.82,1.43-1.57,6.14-3.81,6.34-4.16.83-1.42-.03-9.94.45-13.06,4.69-30.42,43.81-38.26,63.74-14.22,1.41,1.71,3.83,7.09,4.19,7.31Z" transform="translate(-364.46 5)"/>
</svg>
