<?xml version="1.0" encoding="UTF-8"?>
<svg xmlns="http://www.w3.org/2000/svg" viewBox="0 0 122.91 71.53">
  <path fill="#fff" d="M54.48,102.23c-6.34-6.53-2.54-18.84,6.46-20.5,1.81-.33,6.7.05,7.16-.35.52-.44,2.05-7.65,7.17-11.33,7.41-5.33,16.53-2.31,18.78-3.73.42-.27,3.54-7.2,4.72-8.77,13.35-17.67,40.37-17.32,50.82,3.05,1.84,3.58,2.7,9.33,4.15,11.85,1.12,1.95,5.97,4.11,7.91,7.09,6.25,9.59.51,24.09-11.01,25.89-15.37,2.4-33.51-.85-48.94-.94-11.97-.07-28.12,2.72-40.05,1.05-1.42-.2-6.37-2.48-7.18-3.32Z" transform="translate(-46.33 -39.79)"/>
</svg>
