<?xml version="1.0" encoding="UTF-8"?>
<svg xmlns="http://www.w3.org/2000/svg" viewBox="0 0 140.6 69.22">
  <path fill="#fff" d="M14.68,70.52c.3-.29.98-5.56,2.56-7.96,2.53-3.83,9.29-7.36,13.92-7.09,2.65.15,9.13,3.96,10.4,1.9.36-.59.48-4.97,1.34-7.15,7.89-20.04,35.37-25.72,49.2-8.61,1.32,1.63,3.79,6.97,4.57,7.43,1.69,1,4.36.14,6.29.71,5.19,1.53,11.88,8.36,13.48,13.52.49,1.58-.13,4.06.68,5.32,1.11,1.73,10.95-.48,13.11,7.92,1.92,7.47-4.05,12.24-11.04,13.02-15.35,1.71-64.34,1.7-78.96-1.05-2.53-.48-3.67-2.97-7.02-3s-6.1,2.53-9.08,2.98c-2.12.32-13.09,1.21-14.84,1.05-7.41-.68-12.34-9.66-7.12-16.02,5.59-6.82,12.01-2.49,12.52-2.97Z" transform="translate(5 -26.48)"/>
</svg>
