<?xml version="1.0" encoding="UTF-8"?>
<svg xmlns="http://www.w3.org/2000/svg" viewBox="0 0 103.17 63.05">
  <path fill="#fff" d="M114.65,48.88c1.84,2.15,9.26.59,9.88,9.7.82,12.07-11.54,12.08-20.52,12.53-14.19.72-33.98-.45-47.31-3.78-6.1-1.52-6.88,1.26-11.16,2.3-10.89,2.65-19.09-9.3-10.63-17.62,4-3.93,9.17-2.59,9.55-2.95.34-.32-.09-7.14.25-9.25,3.5-21.49,31.86-29.03,45.29-12.81,1.42,1.71,2.35,5.76,4.4,6.51,2.9,1.06,6.52-2.2,12.98,2.12s5.42,11.11,7.25,13.25Z" transform="translate(-26.4 -13.27)"/>
</svg>
