<?xml version="1.0" encoding="UTF-8"?>
<svg xmlns="http://www.w3.org/2000/svg" viewBox="0 0 171.52 71.96">
  <path fill="#fff" d="M536.79,58.42c.63.52,7.25-.66,10.85,2.66,4.3,3.97,2.49,11.58,3.15,12.35.51.6,5.68.02,7.8,3.7,2.86,4.99.92,10.51-4.41,12.37-22.64-.49-45.39.72-68.02.06-5.93-.17-12.93-2.11-18.96-2.1-12.31,0-26.08,2.18-38.96,2.11-9.64-.06-34.49,3.15-29.09-14.1,2.64-8.42,10.88-4.56,13.59-6.4.77-.52,1.72-4.33,2.95-6.05,6.19-8.68,17.09-9.7,25.49-3.48,4.25-11.79,14.32-23,28.01-22.08,3.43.23,9.57,4.53,11.82,3.96,1.28-.33,4.8-5.93,7.36-7.72,17.55-12.26,40.57-4.59,46.88,15.79.52,1.69.94,8.44,1.55,8.94Z" transform="translate(-393.37 -22.8)"/>
</svg>
